<svg xmlns="http://www.w3.org/2000/svg" viewBox="0 0 1389.2 269.62"><title>iconJPT-inline</title><g id="Capa_2" data-name="Capa 2"><g id="Capa_1-2" data-name="Capa 1"><text></text><path d="M1038.21,151.84q4.44,5.24,4.45,14.12A21.8,21.8,0,0,1,1034,183.9q-8.65,6.87-23.32,6.87-16.86,0-27-7.57a29.87,29.87,0,0,1-9.83-12.61v-9h18.56A14.27,14.27,0,0,0,998,171.66q4.83,3.66,12.64,3.66,5.61,0,8.58-2.73a9.21,9.21,0,0,0,3-7.1,7.86,7.86,0,0,0-2.57-6.08,17.53,17.53,0,0,0-6.4-3.59q-3.83-1.24-10.84-3a122.21,122.21,0,0,1-15.68-4.45,24.87,24.87,0,0,1-10.29-7.25,15.75,15.75,0,0,1-2.58-4.18V118.25a22.64,22.64,0,0,1,6.87-9.07q8.57-7,23.71-7,15.75,0,25.27,7.95t11.85,21.22H1021a17.08,17.08,0,0,0-5.61-10Q1011,117.6,1004,117.6c-3.74,0-6.66.89-8.74,2.65a9,9,0,0,0-3.12,7.18,7.27,7.27,0,0,0,2.5,5.77,17.81,17.81,0,0,0,6.24,3.43q3.75,1.26,10.76,3a111.65,111.65,0,0,1,16,4.6A26.43,26.43,0,0,1,1038.21,151.84Z" fill="#f0ce00"/><path d="M973.86,170.59v19.08h-22V165.6a48.63,48.63,0,0,0,3.58-19.14,48.94,48.94,0,0,0-3.58-19.18v-53h22v44a23.79,23.79,0,0,0-1.72,9.18,24.1,24.1,0,0,0,1.72,9.55v24.61h-2.5A38.11,38.11,0,0,0,973.86,170.59Z" fill="#f0ce00"/><path d="M973.86,161.59v9a38.11,38.11,0,0,1-2.5-9Z" fill="#f0ce00"/><path d="M973.86,118.25V137a24.1,24.1,0,0,1-1.72-9.55A23.79,23.79,0,0,1,973.86,118.25Z" fill="#f0ce00"/><path d="M951.87,127.28a48.94,48.94,0,0,1,3.58,19.18,48.63,48.63,0,0,1-3.58,19.14Z" fill="#f0ce00"/><path d="M951.87,127.28V165.6a38.64,38.64,0,0,1-2.19,4.42,39.38,39.38,0,0,1-15.83,15.36,50.5,50.5,0,0,1-45.4,0A39.32,39.32,0,0,1,872.62,170c-.65-1.13-1.25-2.3-1.79-3.5a48.21,48.21,0,0,0,4-20.06,48.5,48.5,0,0,0-4-20.1c.54-1.21,1.14-2.39,1.79-3.53a38.77,38.77,0,0,1,15.83-15.37,51.26,51.26,0,0,1,45.4,0,39.85,39.85,0,0,1,18,19.82Zm-18.72,19.18q0-12.32-6.4-18.8a22,22,0,0,0-31.2,0q-6.4,6.48-6.4,18.8t6.4,18.8a22,22,0,0,0,31.2,0Q933.14,158.79,933.15,146.46Z" fill="#f0ce00"/><path d="M870.83,126.36a48.5,48.5,0,0,1,4,20.1,48.21,48.21,0,0,1-4,20.06,48.05,48.05,0,0,1-4-20.06A48.34,48.34,0,0,1,870.83,126.36Z" fill="#f0ce00"/><path d="M869,122.83a37.76,37.76,0,0,1,1.8,3.53,48.34,48.34,0,0,0-4,20.1,48.05,48.05,0,0,0,4,20.06A37.24,37.24,0,0,1,869,170a39.44,39.44,0,0,1-15.83,15.36,50.5,50.5,0,0,1-45.4,0A39,39,0,0,1,794,173.19V170.8h-1.56c-.16-.25-.32-.52-.47-.78q-5.78-10-5.78-23.56T792,122.83c.2-.35.4-.69.61-1h1.26v-2a38.49,38.49,0,0,1,14-12.4,51.26,51.26,0,0,1,45.4,0A38.89,38.89,0,0,1,869,122.83Zm-16.54,23.63q0-12.32-6.39-18.8a22,22,0,0,0-31.2,0q-6.41,6.48-6.4,18.8t6.4,18.8a22,22,0,0,0,31.2,0Q852.49,158.79,852.49,146.46Z" fill="#f0ce00"/><path d="M794,173.19v16.48H782.45q-14.5,0-22.23-7t-7.72-23.4V121.81H745a39,39,0,0,0-4.54-6.09V103.25h12V81.88h22v21.37h19.34v16.61q-.66.95-1.26,2H774.5v37.76q0,6.24,2.49,8.73t8.43,2.5h7C792.93,171.62,793.45,172.42,794,173.19Z" fill="#f0ce00"/><path d="M794,170.8v2.39c-.55-.77-1.07-1.57-1.56-2.39Z" fill="#f0ce00"/><path d="M793.84,119.86v2h-1.26Q793.18,120.8,793.84,119.86Z" fill="#f0ce00"/><path d="M745.64,122.83q5.76,10.07,5.77,23.63T745.64,170a39.41,39.41,0,0,1-15.84,15.36,50.47,50.47,0,0,1-45.39,0A39.41,39.41,0,0,1,668.57,170c-.5-.86-1-1.74-1.4-2.63a37.69,37.69,0,0,0,2.5-8.14h-5.4a50.6,50.6,0,0,1-1.32-8.58h7a41.53,41.53,0,0,0,.78-7.48,43.57,43.57,0,0,0-3.55-17.79c.43-.87.88-1.73,1.36-2.57a38.86,38.86,0,0,1,15.84-15.37,51.24,51.24,0,0,1,45.39,0,38.42,38.42,0,0,1,10.69,8.26v6.09H745C745.24,122.14,745.44,122.48,745.64,122.83ZM729.1,146.46q0-12.32-6.4-18.8a22,22,0,0,0-31.2,0q-6.39,6.48-6.39,18.8t6.39,18.8a22,22,0,0,0,31.2,0Q729.11,158.79,729.1,146.46Z" fill="#005ca3"/><path d="M745,121.81h-4.54v-6.09A39,39,0,0,1,745,121.81Z" fill="#f0ce00"/><path d="M670.76,143.19a41.53,41.53,0,0,1-.78,7.48h-7c-.1-1.37-.15-2.78-.15-4.21a48.1,48.1,0,0,1,4.41-21.06A43.57,43.57,0,0,1,670.76,143.19Z" fill="#005ca3"/><path d="M664.27,159.25h5.4a37.69,37.69,0,0,1-2.5,8.14A42.69,42.69,0,0,1,664.27,159.25Z" fill="#005ca3"/><path d="M667.17,167.39a36.9,36.9,0,0,1-4.84,8.09,38.25,38.25,0,0,1-14.43,11.23,49.38,49.38,0,0,1-42-1.33A37.76,37.76,0,0,1,590.57,170a41.1,41.1,0,0,1-1.87-3.9V126.76a41.63,41.63,0,0,1,1.87-3.93,37.25,37.25,0,0,1,15.29-15.37,46.62,46.62,0,0,1,22.47-5.3q12.78,0,22.38,5.3A37.35,37.35,0,0,1,665.53,122c.61,1.09,1.17,2.21,1.68,3.35a48.1,48.1,0,0,0-4.41,21.06c0,1.43,0,2.84.15,4.21H606.64q.47,11.55,6.24,17a20.07,20.07,0,0,0,14.35,5.46q7.65,0,12.72-3.75a16.52,16.52,0,0,0,6.47-10.14h17.85A42.69,42.69,0,0,0,667.17,167.39ZM648.61,141q.47-10.6-5.54-16.07a21.17,21.17,0,0,0-14.74-5.46,21.67,21.67,0,0,0-15,5.46q-6.09,5.48-6.71,16.07Z" fill="#005ca3"/><path d="M588.7,166.12V190a47.85,47.85,0,0,1-4.76,21.6,35.11,35.11,0,0,1-14.19,15.06q-9.43,5.46-22.86,5.46-18.72,0-30.26-8.9t-14-24.18h21.68a17.88,17.88,0,0,0,7.26,10.22q5.38,3.66,13.8,3.67,9.68,0,15.6-5.7T566.86,190V171.58a28.41,28.41,0,0,1-11.07,14q-7.82,5.23-18.72,5.23a37.1,37.1,0,0,1-19.66-5.31,35.82,35.82,0,0,1-13.65-15.36c-.41-.84-.8-1.7-1.15-2.58h4.82v-19h-8.55c0-.67,0-1.35,0-2q0-13.58,4.91-23.63a35.84,35.84,0,0,1,13.65-15.37,37.18,37.18,0,0,1,19.66-5.3q10.9,0,18.72,5.15a28,28,0,0,1,11.07,13.88V103.25H588.7v23.51a51.28,51.28,0,0,0-3.59,19.7A51,51,0,0,0,588.7,166.12Zm-21.84-19.66q0-11.53-6.47-18.33a21.79,21.79,0,0,0-16.46-6.78q-10.29,0-16.54,6.7t-6.24,18.41q0,11.7,6.24,18.33t16.54,6.63a21.79,21.79,0,0,0,16.46-6.78Q566.86,157.84,566.86,146.46Z" fill="#005ca3"/><path d="M588.7,126.76v39.36a51,51,0,0,1-3.59-19.66A51.28,51.28,0,0,1,588.7,126.76Z" fill="#005ca3"/><path d="M507.43,148.49v19h-4.82a53.53,53.53,0,0,1-3.73-19Z" fill="#005ca3"/><path d="M502.61,167.52h-9.53v22.15H470.92V167.52H419.83a47.67,47.67,0,0,0,4.45-21.06,59.26,59.26,0,0,0-.38-6.76l45.62-61.41h23.56v70.2h5.8A53.53,53.53,0,0,0,502.61,167.52Zm-30-19V104l-33.38,44.46Z" fill="#005ca3"/><polygon points="472.64 104.03 472.64 148.49 439.26 148.49 472.64 104.03" fill="#f0ce00"/><path d="M423.9,139.7a59.26,59.26,0,0,1,.38,6.76,47.67,47.67,0,0,1-4.45,21.06h-3V149.27Z" fill="#005ca3"/><path d="M423.9,139.7l-7.11,9.57v18.25h3c-.41.85-.85,1.68-1.32,2.5a39.41,39.41,0,0,1-15.84,15.36,50.47,50.47,0,0,1-45.39,0A39.41,39.41,0,0,1,341.44,170c-.5-.86-1-1.74-1.39-2.64a38.55,38.55,0,0,0,2.49-8.13h-5.4a50.6,50.6,0,0,1-1.32-8.58h7a41.53,41.53,0,0,0,.78-7.48,43.36,43.36,0,0,0-3.55-17.78c.43-.88.88-1.74,1.36-2.58a38.86,38.86,0,0,1,15.84-15.37,51.24,51.24,0,0,1,45.39,0,38.86,38.86,0,0,1,15.84,15.37A43.94,43.94,0,0,1,423.9,139.7ZM402,146.46q0-12.32-6.39-18.8a22,22,0,0,0-31.2,0q-6.41,6.48-6.4,18.8t6.4,18.8a22,22,0,0,0,31.2,0Q402,158.79,402,146.46Z" fill="#005ca3"/><path d="M343.63,143.19a41.53,41.53,0,0,1-.78,7.48h-7c-.1-1.37-.15-2.78-.15-4.21a48.05,48.05,0,0,1,4.41-21A43.36,43.36,0,0,1,343.63,143.19Z" fill="#005ca3"/><path d="M337.14,159.25h5.4a38.55,38.55,0,0,1-2.49,8.13A41.71,41.71,0,0,1,337.14,159.25Z" fill="#005ca3"/><path d="M340.05,167.38a37,37,0,0,1-4.84,8.1,38.4,38.4,0,0,1-14.43,11.23,49.4,49.4,0,0,1-42.05-1.33A37.68,37.68,0,0,1,263.45,170Q258,160,258,146.46t5.46-23.63a37.17,37.17,0,0,1,15.28-15.37,46.64,46.64,0,0,1,22.47-5.3q12.78,0,22.38,5.3A37.35,37.35,0,0,1,338.4,122c.61,1.1,1.18,2.22,1.68,3.36a48.05,48.05,0,0,0-4.41,21c0,1.43.05,2.84.15,4.21H279.51q.48,11.55,6.24,17a20.08,20.08,0,0,0,14.36,5.46q7.64,0,12.71-3.75a16.52,16.52,0,0,0,6.47-10.14h17.85A41.71,41.71,0,0,0,340.05,167.38ZM321.48,141q.47-10.6-5.54-16.07a21.15,21.15,0,0,0-14.74-5.46,21.67,21.67,0,0,0-15,5.46q-6.08,5.48-6.71,16.07Z" fill="#005ca3"/><path d="M43,252.63l58.71-58a4.48,4.48,0,0,0,.87-2.54l.11-24.88,32.69,33.11a4.08,4.08,0,0,0,2.93,1.26,4.21,4.21,0,0,0,2.94-1.22l33.64-33.19L179,199l-22-3.11a4.17,4.17,0,0,0-1.16,8.27l27.4,3.89a3.48,3.48,0,0,0,.55,0,4.21,4.21,0,0,0,2.94-1.22,4.16,4.16,0,0,0,1.2-3.48l-5.85-45.56a4.11,4.11,0,0,0-1.16-2.38l-32.76-33.23,25.15.17a3.1,3.1,0,0,0,2.55-.83l58.55-57.78a5.93,5.93,0,0,0,.87-2.55,3.11,3.11,0,0,0-.83-2.55L197.37,21a3.86,3.86,0,0,0-5.09,0L133.57,79a4.48,4.48,0,0,0-.87,2.54l-.1,24.89-1.23-1.25v.05L98.56,71.95a32,32,0,0,0-45.61,44.87l34.18,34.63L62,151.28a3.09,3.09,0,0,0-2.55.83L.87,209.89A6,6,0,0,0,0,212.44,3.12,3.12,0,0,0,.84,215L38,252.6A3.86,3.86,0,0,0,43,252.63ZM141,83.34l53.76-53,30.33,30.73L171.64,114l-30.79-.18ZM52.11,94.24A23.67,23.67,0,0,1,91,76.25l-33.55,33.1A23.52,23.52,0,0,1,52.11,94.24Zm11.57,65.41,30.79.18-.18,30.46-53.76,53L10.2,212.58Z" fill="#005ca3"/><path d="M177.33,232.58a29.8,29.8,0,0,0,35.26-34.81A4,4,0,0,1,215.5,193a4,4,0,0,1,4.78,3.39A39.59,39.59,0,0,1,210,230.87a37.45,37.45,0,0,1-26.47,10.87,41.58,41.58,0,0,1-7.66-1,4.14,4.14,0,1,1,1.5-8.14Z" fill="#005ca3"/><path d="M181,260c16.29,3.47,33.6-1.23,45.2-13.13a49.32,49.32,0,0,0,13.73-45,4.14,4.14,0,1,1,8.16-1.39,58.12,58.12,0,0,1-16.18,52.68A57,57,0,0,1,191,269.62a50.45,50.45,0,0,1-11.51-1.51,4,4,0,0,1-3.33-4.82C176.66,260.89,179.06,259.95,181,260Z" fill="#005ca3"/><rect x="117.62" y="73.62" width="19.69" height="107.05" transform="translate(-52.57 126.19) rotate(-44.62)" fill="#f0ce00"/><rect x="98.01" y="93.16" width="19.25" height="107.04" transform="translate(-72.01 117.89) rotate(-44.62)" fill="#f0ce00"/><text transform="translate(1108.29 168.01)" font-size="62" fill="#005ca3" font-family="Poppins-Regular, Poppins">Job Offer</text><line x1="1081.5" y1="76.62" x2="1081.5" y2="210.62" fill="none" stroke="#005ca3" stroke-miterlimit="10" stroke-width="3"/></g></g></svg>